<mxfile host="app.diagrams.net" modified="2023-11-10T18:17:41.195Z" agent="Mozilla/5.0 (Windows NT 10.0; Win64; x64) AppleWebKit/537.36 (KHTML, like Gecko) Chrome/119.0.0.0 Safari/537.36" etag="zoHZPJt3_fiL8KY9FMBh" version="22.1.0" type="device">
  <diagram name="Страница — 1" id="PR_YhWmMzDaSOc2EWo4r">
    <mxGraphModel dx="573" dy="765" grid="1" gridSize="10" guides="1" tooltips="1" connect="1" arrows="1" fold="1" page="1" pageScale="1" pageWidth="827" pageHeight="1169" math="0" shadow="0">
      <root>
        <mxCell id="0" />
        <mxCell id="1" parent="0" />
        <mxCell id="aftLZkoXdmzMpvK5F9YH-1" value="" style="rounded=0;whiteSpace=wrap;html=1;fillColor=none;movable=1;resizable=1;rotatable=1;deletable=1;editable=1;locked=0;connectable=1;" vertex="1" parent="1">
          <mxGeometry x="956" y="160" width="520" height="490" as="geometry" />
        </mxCell>
        <mxCell id="aftLZkoXdmzMpvK5F9YH-59" style="rounded=0;orthogonalLoop=1;jettySize=auto;html=1;endArrow=none;endFill=0;" edge="1" parent="1" source="aftLZkoXdmzMpvK5F9YH-2" target="aftLZkoXdmzMpvK5F9YH-28">
          <mxGeometry relative="1" as="geometry" />
        </mxCell>
        <mxCell id="aftLZkoXdmzMpvK5F9YH-67" style="rounded=0;orthogonalLoop=1;jettySize=auto;html=1;endArrow=none;endFill=0;" edge="1" parent="1" source="aftLZkoXdmzMpvK5F9YH-2" target="aftLZkoXdmzMpvK5F9YH-56">
          <mxGeometry relative="1" as="geometry" />
        </mxCell>
        <mxCell id="aftLZkoXdmzMpvK5F9YH-2" value="Студент" style="shape=umlActor;verticalLabelPosition=top;verticalAlign=bottom;html=1;outlineConnect=0;movable=1;resizable=1;rotatable=1;deletable=1;editable=1;locked=0;connectable=1;labelPosition=center;align=center;" vertex="1" parent="1">
          <mxGeometry x="898" y="202" width="30" height="60" as="geometry" />
        </mxCell>
        <mxCell id="aftLZkoXdmzMpvK5F9YH-3" value="Администратор" style="shape=umlActor;verticalLabelPosition=bottom;verticalAlign=top;html=1;outlineConnect=0;movable=1;resizable=1;rotatable=1;deletable=1;editable=1;locked=0;connectable=1;" vertex="1" parent="1">
          <mxGeometry x="1526" y="322" width="30" height="60" as="geometry" />
        </mxCell>
        <mxCell id="aftLZkoXdmzMpvK5F9YH-5" style="rounded=0;orthogonalLoop=1;jettySize=auto;html=1;entryX=0;entryY=0.5;entryDx=0;entryDy=0;endArrow=none;endFill=0;" edge="1" parent="1" source="aftLZkoXdmzMpvK5F9YH-6" target="aftLZkoXdmzMpvK5F9YH-56">
          <mxGeometry relative="1" as="geometry" />
        </mxCell>
        <mxCell id="aftLZkoXdmzMpvK5F9YH-6" value="Преподаватель" style="shape=umlActor;verticalLabelPosition=bottom;verticalAlign=top;html=1;outlineConnect=0;labelPosition=center;align=center;movable=1;resizable=1;rotatable=1;deletable=1;editable=1;locked=0;connectable=1;" vertex="1" parent="1">
          <mxGeometry x="860" y="365" width="30" height="60" as="geometry" />
        </mxCell>
        <mxCell id="aftLZkoXdmzMpvK5F9YH-7" value="&lt;font style=&quot;font-size: 8px;&quot;&gt;Работа с БД&lt;/font&gt;" style="ellipse;whiteSpace=wrap;html=1;movable=1;resizable=1;rotatable=1;deletable=1;editable=1;locked=0;connectable=1;" vertex="1" parent="1">
          <mxGeometry x="1400" y="220" width="70" height="50" as="geometry" />
        </mxCell>
        <mxCell id="aftLZkoXdmzMpvK5F9YH-8" value="Расписание занятий" style="text;html=1;align=center;verticalAlign=middle;resizable=1;points=[];autosize=1;strokeColor=none;fillColor=none;movable=1;rotatable=1;deletable=1;editable=1;locked=0;connectable=1;" vertex="1" parent="1">
          <mxGeometry x="956" y="160" width="140" height="30" as="geometry" />
        </mxCell>
        <mxCell id="aftLZkoXdmzMpvK5F9YH-9" value="" style="endArrow=none;html=1;rounded=0;movable=1;resizable=1;rotatable=1;deletable=1;editable=1;locked=0;connectable=1;" edge="1" parent="1" source="aftLZkoXdmzMpvK5F9YH-7" target="aftLZkoXdmzMpvK5F9YH-3">
          <mxGeometry width="50" height="50" relative="1" as="geometry">
            <mxPoint x="1396" y="452" as="sourcePoint" />
            <mxPoint x="1446" y="402" as="targetPoint" />
          </mxGeometry>
        </mxCell>
        <mxCell id="aftLZkoXdmzMpvK5F9YH-10" style="rounded=0;orthogonalLoop=1;jettySize=auto;html=1;endArrow=block;endFill=0;movable=1;resizable=1;rotatable=1;deletable=1;editable=1;locked=0;connectable=1;" edge="1" parent="1" source="aftLZkoXdmzMpvK5F9YH-6" target="aftLZkoXdmzMpvK5F9YH-2">
          <mxGeometry relative="1" as="geometry" />
        </mxCell>
        <mxCell id="aftLZkoXdmzMpvK5F9YH-11" style="rounded=0;orthogonalLoop=1;jettySize=auto;html=1;exitX=0;exitY=1;exitDx=0;exitDy=0;entryX=1;entryY=0;entryDx=0;entryDy=0;dashed=1;dashPattern=8 8;" edge="1" parent="1" source="aftLZkoXdmzMpvK5F9YH-14" target="aftLZkoXdmzMpvK5F9YH-21">
          <mxGeometry relative="1" as="geometry" />
        </mxCell>
        <mxCell id="aftLZkoXdmzMpvK5F9YH-12" value="&lt;font style=&quot;font-size: 8px;&quot;&gt;&amp;lt;&amp;lt;include&amp;gt;&amp;gt;&lt;/font&gt;" style="edgeLabel;html=1;align=center;verticalAlign=middle;resizable=0;points=[];" vertex="1" connectable="0" parent="aftLZkoXdmzMpvK5F9YH-11">
          <mxGeometry x="-0.0712" y="-2" relative="1" as="geometry">
            <mxPoint x="-3" y="-3" as="offset" />
          </mxGeometry>
        </mxCell>
        <mxCell id="aftLZkoXdmzMpvK5F9YH-13" style="rounded=0;orthogonalLoop=1;jettySize=auto;html=1;dashed=1;dashPattern=8 8;" edge="1" parent="1" source="aftLZkoXdmzMpvK5F9YH-14" target="aftLZkoXdmzMpvK5F9YH-20">
          <mxGeometry relative="1" as="geometry" />
        </mxCell>
        <mxCell id="aftLZkoXdmzMpvK5F9YH-14" value="&lt;font style=&quot;font-size: 8px;&quot;&gt;Работа с &lt;br&gt;расписанием&lt;/font&gt;" style="ellipse;whiteSpace=wrap;html=1;movable=1;resizable=1;rotatable=1;deletable=1;editable=1;locked=0;connectable=1;" vertex="1" parent="1">
          <mxGeometry x="1370" y="317" width="90" height="65" as="geometry" />
        </mxCell>
        <mxCell id="aftLZkoXdmzMpvK5F9YH-15" value="" style="endArrow=none;html=1;rounded=0;exitX=1;exitY=0.5;exitDx=0;exitDy=0;" edge="1" parent="1" source="aftLZkoXdmzMpvK5F9YH-14" target="aftLZkoXdmzMpvK5F9YH-3">
          <mxGeometry width="50" height="50" relative="1" as="geometry">
            <mxPoint x="1460" y="492" as="sourcePoint" />
            <mxPoint x="1510" y="442" as="targetPoint" />
          </mxGeometry>
        </mxCell>
        <mxCell id="aftLZkoXdmzMpvK5F9YH-16" value="&lt;font style=&quot;font-size: 8px;&quot;&gt;Просмотр &lt;br&gt;расписания&lt;/font&gt;" style="ellipse;whiteSpace=wrap;html=1;movable=1;resizable=1;rotatable=1;deletable=1;editable=1;locked=0;connectable=1;" vertex="1" parent="1">
          <mxGeometry x="1180" y="180" width="70" height="50" as="geometry" />
        </mxCell>
        <mxCell id="aftLZkoXdmzMpvK5F9YH-17" value="&lt;font style=&quot;font-size: 8px;&quot;&gt;Регистрация&lt;/font&gt;" style="ellipse;whiteSpace=wrap;html=1;movable=1;resizable=1;rotatable=1;deletable=1;editable=1;locked=0;connectable=1;" vertex="1" parent="1">
          <mxGeometry x="1216" y="250" width="70" height="50" as="geometry" />
        </mxCell>
        <mxCell id="aftLZkoXdmzMpvK5F9YH-18" value="" style="endArrow=none;html=1;rounded=0;exitX=0;exitY=0.5;exitDx=0;exitDy=0;" edge="1" parent="1" source="aftLZkoXdmzMpvK5F9YH-16" target="aftLZkoXdmzMpvK5F9YH-2">
          <mxGeometry width="50" height="50" relative="1" as="geometry">
            <mxPoint x="1030" y="512" as="sourcePoint" />
            <mxPoint x="1080" y="462" as="targetPoint" />
          </mxGeometry>
        </mxCell>
        <mxCell id="aftLZkoXdmzMpvK5F9YH-20" value="&lt;font style=&quot;font-size: 8px;&quot;&gt;Удаление &lt;br&gt;занятий&lt;/font&gt;" style="ellipse;whiteSpace=wrap;html=1;movable=1;resizable=1;rotatable=1;deletable=1;editable=1;locked=0;connectable=1;" vertex="1" parent="1">
          <mxGeometry x="1326" y="447" width="70" height="50" as="geometry" />
        </mxCell>
        <mxCell id="aftLZkoXdmzMpvK5F9YH-21" value="&lt;span style=&quot;font-size: 8px;&quot;&gt;Добавление занятий&lt;/span&gt;" style="ellipse;whiteSpace=wrap;html=1;movable=1;resizable=1;rotatable=1;deletable=1;editable=1;locked=0;connectable=1;" vertex="1" parent="1">
          <mxGeometry x="1280" y="400" width="70" height="50" as="geometry" />
        </mxCell>
        <mxCell id="aftLZkoXdmzMpvK5F9YH-22" value="&lt;font style=&quot;font-size: 8px;&quot;&gt;&amp;lt;&amp;lt;include&amp;gt;&amp;gt;&lt;/font&gt;" style="edgeLabel;html=1;align=center;verticalAlign=middle;resizable=0;points=[];rotation=0;" vertex="1" connectable="0" parent="1">
          <mxGeometry x="1388.0023613166645" y="413.99827670065815" as="geometry">
            <mxPoint x="-2" y="1" as="offset" />
          </mxGeometry>
        </mxCell>
        <mxCell id="aftLZkoXdmzMpvK5F9YH-23" style="rounded=0;orthogonalLoop=1;jettySize=auto;html=1;dashed=1;dashPattern=8 8;exitX=0.648;exitY=0.999;exitDx=0;exitDy=0;exitPerimeter=0;" edge="1" parent="1" source="aftLZkoXdmzMpvK5F9YH-14" target="aftLZkoXdmzMpvK5F9YH-24">
          <mxGeometry relative="1" as="geometry">
            <mxPoint x="1373" y="362" as="sourcePoint" />
          </mxGeometry>
        </mxCell>
        <mxCell id="aftLZkoXdmzMpvK5F9YH-24" value="&lt;font style=&quot;font-size: 8px;&quot;&gt;Изменение&lt;br&gt;занятий&lt;br&gt;&lt;/font&gt;" style="ellipse;whiteSpace=wrap;html=1;movable=1;resizable=1;rotatable=1;deletable=1;editable=1;locked=0;connectable=1;" vertex="1" parent="1">
          <mxGeometry x="1400" y="440" width="70" height="50" as="geometry" />
        </mxCell>
        <mxCell id="aftLZkoXdmzMpvK5F9YH-25" value="&lt;font style=&quot;font-size: 8px;&quot;&gt;&amp;lt;&amp;lt;include&amp;gt;&amp;gt;&lt;/font&gt;" style="edgeLabel;html=1;align=center;verticalAlign=middle;resizable=0;points=[];rotation=0;" vertex="1" connectable="0" parent="1">
          <mxGeometry x="1435.0023613166645" y="413.99827670065815" as="geometry">
            <mxPoint x="-2" y="-5" as="offset" />
          </mxGeometry>
        </mxCell>
        <mxCell id="aftLZkoXdmzMpvK5F9YH-26" value="" style="endArrow=none;html=1;rounded=0;exitX=1;exitY=0.5;exitDx=0;exitDy=0;" edge="1" parent="1" source="aftLZkoXdmzMpvK5F9YH-16" target="aftLZkoXdmzMpvK5F9YH-3">
          <mxGeometry width="50" height="50" relative="1" as="geometry">
            <mxPoint x="1190" y="562" as="sourcePoint" />
            <mxPoint x="1240" y="512" as="targetPoint" />
          </mxGeometry>
        </mxCell>
        <mxCell id="aftLZkoXdmzMpvK5F9YH-27" value="" style="endArrow=none;html=1;rounded=0;exitX=0.058;exitY=0.702;exitDx=0;exitDy=0;exitPerimeter=0;" edge="1" parent="1" source="aftLZkoXdmzMpvK5F9YH-16" target="aftLZkoXdmzMpvK5F9YH-6">
          <mxGeometry width="50" height="50" relative="1" as="geometry">
            <mxPoint x="1120" y="412" as="sourcePoint" />
            <mxPoint x="1170" y="362" as="targetPoint" />
          </mxGeometry>
        </mxCell>
        <mxCell id="aftLZkoXdmzMpvK5F9YH-61" style="rounded=0;orthogonalLoop=1;jettySize=auto;html=1;dashed=1;" edge="1" parent="1" source="aftLZkoXdmzMpvK5F9YH-28" target="aftLZkoXdmzMpvK5F9YH-17">
          <mxGeometry relative="1" as="geometry" />
        </mxCell>
        <mxCell id="aftLZkoXdmzMpvK5F9YH-62" value="&amp;lt;&amp;lt;include&amp;gt;&amp;gt;" style="edgeLabel;html=1;align=center;verticalAlign=middle;resizable=0;points=[];fontSize=8;" vertex="1" connectable="0" parent="aftLZkoXdmzMpvK5F9YH-61">
          <mxGeometry x="0.0056" y="-1" relative="1" as="geometry">
            <mxPoint as="offset" />
          </mxGeometry>
        </mxCell>
        <mxCell id="aftLZkoXdmzMpvK5F9YH-63" style="rounded=0;orthogonalLoop=1;jettySize=auto;html=1;dashed=1;" edge="1" parent="1" source="aftLZkoXdmzMpvK5F9YH-28" target="aftLZkoXdmzMpvK5F9YH-60">
          <mxGeometry relative="1" as="geometry" />
        </mxCell>
        <mxCell id="aftLZkoXdmzMpvK5F9YH-64" value="&amp;lt;&amp;lt;include&amp;gt;&amp;gt;" style="edgeLabel;html=1;align=center;verticalAlign=middle;resizable=0;points=[];fontSize=8;" vertex="1" connectable="0" parent="aftLZkoXdmzMpvK5F9YH-63">
          <mxGeometry x="0.0261" y="1" relative="1" as="geometry">
            <mxPoint as="offset" />
          </mxGeometry>
        </mxCell>
        <mxCell id="aftLZkoXdmzMpvK5F9YH-28" value="&lt;span style=&quot;font-size: 8px;&quot;&gt;Вход в систему&lt;/span&gt;" style="ellipse;whiteSpace=wrap;html=1;movable=1;resizable=1;rotatable=1;deletable=1;editable=1;locked=0;connectable=1;" vertex="1" parent="1">
          <mxGeometry x="1096" y="290" width="70" height="50" as="geometry" />
        </mxCell>
        <mxCell id="aftLZkoXdmzMpvK5F9YH-29" value="" style="endArrow=none;html=1;rounded=0;entryX=0;entryY=1;entryDx=0;entryDy=0;" edge="1" parent="1" source="aftLZkoXdmzMpvK5F9YH-6" target="aftLZkoXdmzMpvK5F9YH-28">
          <mxGeometry width="50" height="50" relative="1" as="geometry">
            <mxPoint x="1070" y="-178" as="sourcePoint" />
            <mxPoint x="1120" y="-228" as="targetPoint" />
          </mxGeometry>
        </mxCell>
        <mxCell id="aftLZkoXdmzMpvK5F9YH-38" style="rounded=0;orthogonalLoop=1;jettySize=auto;html=1;dashed=1;dashPattern=8 8;" edge="1" parent="1" source="aftLZkoXdmzMpvK5F9YH-42" target="aftLZkoXdmzMpvK5F9YH-44">
          <mxGeometry relative="1" as="geometry" />
        </mxCell>
        <mxCell id="aftLZkoXdmzMpvK5F9YH-39" value="&amp;lt;&amp;lt;include&amp;gt;&amp;gt;" style="edgeLabel;html=1;align=center;verticalAlign=middle;resizable=0;points=[];fontSize=8;" vertex="1" connectable="0" parent="aftLZkoXdmzMpvK5F9YH-38">
          <mxGeometry x="-0.0825" relative="1" as="geometry">
            <mxPoint as="offset" />
          </mxGeometry>
        </mxCell>
        <mxCell id="aftLZkoXdmzMpvK5F9YH-40" style="rounded=0;orthogonalLoop=1;jettySize=auto;html=1;entryX=0.5;entryY=0;entryDx=0;entryDy=0;dashed=1;dashPattern=8 8;" edge="1" parent="1" source="aftLZkoXdmzMpvK5F9YH-42" target="aftLZkoXdmzMpvK5F9YH-46">
          <mxGeometry relative="1" as="geometry" />
        </mxCell>
        <mxCell id="aftLZkoXdmzMpvK5F9YH-41" style="rounded=0;orthogonalLoop=1;jettySize=auto;html=1;entryX=0;entryY=0;entryDx=0;entryDy=0;dashed=1;dashPattern=8 8;" edge="1" parent="1" source="aftLZkoXdmzMpvK5F9YH-42" target="aftLZkoXdmzMpvK5F9YH-50">
          <mxGeometry relative="1" as="geometry" />
        </mxCell>
        <mxCell id="aftLZkoXdmzMpvK5F9YH-42" value="&lt;span style=&quot;font-size: 8px;&quot;&gt;Работа с&lt;br&gt;занятиями&lt;br&gt;&lt;/span&gt;" style="ellipse;whiteSpace=wrap;html=1;movable=1;resizable=1;rotatable=1;deletable=1;editable=1;locked=0;connectable=1;" vertex="1" parent="1">
          <mxGeometry x="990.84" y="460" width="70" height="50" as="geometry" />
        </mxCell>
        <mxCell id="aftLZkoXdmzMpvK5F9YH-43" value="" style="endArrow=none;html=1;rounded=0;exitX=0;exitY=0;exitDx=0;exitDy=0;" edge="1" parent="1" source="aftLZkoXdmzMpvK5F9YH-42" target="aftLZkoXdmzMpvK5F9YH-6">
          <mxGeometry width="50" height="50" relative="1" as="geometry">
            <mxPoint x="1130" y="420" as="sourcePoint" />
            <mxPoint x="1180" y="370" as="targetPoint" />
          </mxGeometry>
        </mxCell>
        <mxCell id="aftLZkoXdmzMpvK5F9YH-44" value="&lt;span style=&quot;font-size: 8px;&quot;&gt;Добавление&lt;br&gt;информации&lt;/span&gt;" style="ellipse;whiteSpace=wrap;html=1;movable=1;resizable=1;rotatable=1;deletable=1;editable=1;locked=0;connectable=1;" vertex="1" parent="1">
          <mxGeometry x="1130.84" y="477" width="88.33" height="53" as="geometry" />
        </mxCell>
        <mxCell id="aftLZkoXdmzMpvK5F9YH-46" value="&lt;span style=&quot;font-size: 8px;&quot;&gt;Редактирование информации&lt;/span&gt;" style="ellipse;whiteSpace=wrap;html=1;movable=1;resizable=1;rotatable=1;deletable=1;editable=1;locked=0;connectable=1;" vertex="1" parent="1">
          <mxGeometry x="1060.84" y="580" width="80" height="50" as="geometry" />
        </mxCell>
        <mxCell id="aftLZkoXdmzMpvK5F9YH-47" value="&amp;lt;&amp;lt;include&amp;gt;&amp;gt;" style="edgeLabel;html=1;align=center;verticalAlign=middle;resizable=0;points=[];fontSize=8;" vertex="1" connectable="0" parent="1">
          <mxGeometry x="1051.8368124464566" y="539.9964495769641" as="geometry" />
        </mxCell>
        <mxCell id="aftLZkoXdmzMpvK5F9YH-50" value="&lt;span style=&quot;font-size: 8px;&quot;&gt;Удаление информации&lt;/span&gt;" style="ellipse;whiteSpace=wrap;html=1;movable=1;resizable=1;rotatable=1;deletable=1;editable=1;locked=0;connectable=1;" vertex="1" parent="1">
          <mxGeometry x="1120.84" y="540" width="80" height="50" as="geometry" />
        </mxCell>
        <mxCell id="aftLZkoXdmzMpvK5F9YH-51" value="&amp;lt;&amp;lt;include&amp;gt;&amp;gt;" style="edgeLabel;html=1;align=center;verticalAlign=middle;resizable=0;points=[];fontSize=8;" vertex="1" connectable="0" parent="1">
          <mxGeometry x="1080.8368124464566" y="519.9964495769641" as="geometry" />
        </mxCell>
        <mxCell id="aftLZkoXdmzMpvK5F9YH-56" value="&lt;span style=&quot;font-size: 8px;&quot;&gt;Поиск и фильтрация&lt;/span&gt;" style="ellipse;whiteSpace=wrap;html=1;movable=1;resizable=1;rotatable=1;deletable=1;editable=1;locked=0;connectable=1;" vertex="1" parent="1">
          <mxGeometry x="1040" y="365" width="70" height="50" as="geometry" />
        </mxCell>
        <mxCell id="aftLZkoXdmzMpvK5F9YH-60" value="&lt;font style=&quot;font-size: 8px;&quot;&gt;Авторизация&lt;/font&gt;" style="ellipse;whiteSpace=wrap;html=1;movable=1;resizable=1;rotatable=1;deletable=1;editable=1;locked=0;connectable=1;" vertex="1" parent="1">
          <mxGeometry x="1207" y="332" width="70" height="50" as="geometry" />
        </mxCell>
      </root>
    </mxGraphModel>
  </diagram>
</mxfile>
